<svg xmlns="http://www.w3.org/2000/svg" xmlns:xlink="http://www.w3.org/1999/xlink" width="377" zoomAndPan="magnify" viewBox="0 0 283.5 283.500005" height="377" preserveAspectRatio="xMidYMid meet" version="1.0"><defs><g/></defs><g fill="#313bac" fill-opacity="1"><g transform="translate(5.150252, 162.021296)"><g><path d="M 2.941406 -11.953125 C 2.941406 -4.003906 9.074219 1.3125 17.832031 1.3125 C 27.53125 1.3125 33.601562 -4.316406 33.601562 -12.390625 C 33.601562 -19.898438 28.09375 -23.777344 23.214844 -27.59375 C 19.335938 -30.660156 16.144531 -33.351562 16.144531 -35.542969 C 16.144531 -37.917969 17.957031 -39.046875 19.648438 -39.046875 C 21.210938 -39.046875 22.714844 -38.105469 22.714844 -36.292969 C 22.714844 -35.480469 22.589844 -34.726562 22.589844 -33.976562 C 22.589844 -31.910156 24.402344 -30.347656 26.90625 -30.347656 C 29.785156 -30.347656 31.410156 -32.664062 31.410156 -36.667969 C 31.410156 -42.488281 26.28125 -46.679688 19.523438 -46.679688 C 12.328125 -46.679688 7.382812 -41.671875 7.382812 -35.730469 C 7.382812 -29.785156 11.761719 -25.40625 16.769531 -21.710938 C 20.960938 -18.585938 24.839844 -15.832031 24.839844 -12.203125 C 24.839844 -8.320312 21.648438 -6.507812 18.457031 -6.507812 C 15.078125 -6.507812 11.699219 -8.449219 11.699219 -11.953125 C 11.699219 -14.265625 12.765625 -16.019531 12.765625 -17.769531 C 12.765625 -19.898438 11.261719 -21.460938 8.511719 -21.460938 C 6.445312 -21.460938 4.941406 -20.273438 4.191406 -18.394531 C 3.316406 -16.207031 2.941406 -13.828125 2.941406 -11.953125 Z M 2.941406 -11.953125 "/></g></g></g><g fill="#313bac" fill-opacity="1"><g transform="translate(37.371971, 162.021296)"><g><path d="M 57.753906 -43.550781 C 56.816406 -45.554688 55.4375 -46.492188 53.25 -46.492188 C 50.871094 -46.492188 49.246094 -44.675781 49.246094 -42.550781 C 49.246094 -41.734375 49.683594 -40.359375 50.496094 -38.292969 C 51.246094 -36.417969 51.996094 -33.101562 51.996094 -29.222656 C 51.996094 -16.644531 47.554688 -7.070312 44.300781 -7.070312 C 42.046875 -7.070312 40.171875 -10.949219 40.171875 -20.523438 C 40.171875 -26.90625 41.484375 -32.039062 41.484375 -33.851562 C 41.484375 -36.480469 39.296875 -37.917969 37.105469 -37.917969 C 35.039062 -37.917969 32.976562 -36.667969 32.601562 -34.039062 C 29.785156 -16.832031 24.089844 -7.070312 20.648438 -7.070312 C 19.148438 -7.070312 17.894531 -8.320312 17.894531 -11.828125 C 17.894531 -18.585938 20.835938 -32.914062 20.835938 -37.355469 C 20.835938 -42.613281 17.519531 -46.179688 12.015625 -46.179688 C 8.195312 -46.179688 5.003906 -44.550781 3.316406 -42.046875 C 2.503906 -40.859375 2.191406 -39.609375 2.191406 -38.667969 C 2.191406 -36.417969 4.003906 -35.164062 5.882812 -35.164062 C 7.570312 -35.164062 8.449219 -36.042969 9.199219 -36.917969 C 10.199219 -38.042969 10.761719 -38.542969 11.261719 -38.542969 C 11.699219 -38.542969 12.078125 -38.167969 12.078125 -37.105469 C 12.078125 -33.601562 9.136719 -17.332031 9.136719 -11.699219 C 9.136719 -3.628906 13.515625 0.75 19.710938 0.75 C 25.34375 0.75 29.535156 -2.441406 32.851562 -9.261719 C 34.601562 -2.628906 38.230469 0.75 43.800781 0.75 C 53.75 0.75 60.757812 -11.324219 60.757812 -28.46875 C 60.757812 -34.101562 59.570312 -39.796875 57.753906 -43.550781 Z M 57.753906 -43.550781 "/></g></g></g><g fill="#313bac" fill-opacity="1"><g transform="translate(96.872671, 162.021296)"><g><path d="M 50.933594 -16.957031 C 48.492188 -10.324219 46.242188 -7.382812 44.550781 -7.382812 C 43.488281 -7.382812 42.613281 -8.257812 42.613281 -10.574219 C 42.613281 -23.277344 46.492188 -36.480469 46.492188 -40.859375 C 46.492188 -44.113281 44.300781 -46.304688 40.734375 -46.304688 C 33.164062 -46.304688 30.222656 -41.046875 22.777344 -23.402344 C 22.527344 -22.777344 22.214844 -22.152344 21.964844 -21.523438 L 17.769531 -21.523438 C 15.140625 -21.523438 13.703125 -19.710938 13.703125 -17.894531 C 13.703125 -16.019531 15.140625 -14.203125 18.082031 -14.203125 L 18.144531 -14.203125 C 15.207031 -9.324219 12.515625 -7.132812 10.699219 -7.132812 C 8.699219 -7.132812 8.007812 -9.574219 5.320312 -9.574219 C 3.253906 -9.574219 1.753906 -8.070312 1.753906 -5.757812 C 1.753906 -2.378906 5.132812 1 10.949219 1 C 17.457031 1 22.839844 -3.316406 28.21875 -14.578125 C 30.097656 -14.703125 31.972656 -14.890625 33.789062 -15.078125 C 33.726562 -13.953125 33.664062 -12.828125 33.664062 -11.761719 C 33.664062 -3.066406 37.480469 0.75 42.800781 0.75 C 47.804688 0.75 52.8125 -3.191406 56.816406 -14.765625 C 56.941406 -15.207031 57.003906 -15.582031 57.003906 -15.957031 C 57.003906 -17.769531 55.375 -18.835938 53.75 -18.835938 C 52.5625 -18.835938 51.433594 -18.207031 50.933594 -16.957031 Z M 31.472656 -22.089844 C 35.039062 -31.035156 37.292969 -38.984375 38.167969 -38.984375 C 38.859375 -38.984375 36.292969 -31.222656 34.789062 -22.527344 C 33.664062 -22.339844 32.601562 -22.214844 31.472656 -22.089844 Z M 31.472656 -22.089844 "/></g></g></g><g fill="#313bac" fill-opacity="1"><g transform="translate(148.489995, 162.021296)"><g><path d="M 41.234375 -16.957031 C 39.171875 -11.699219 37.167969 -6.757812 35.667969 -6.757812 C 34.539062 -6.757812 33.351562 -8.761719 31.535156 -12.765625 C 30.035156 -16.144531 29.472656 -17.144531 28.28125 -18.207031 C 34.164062 -20.898438 37.167969 -26.59375 37.167969 -31.785156 C 37.167969 -39.171875 31.222656 -46.617188 19.273438 -46.617188 C 8.070312 -46.617188 0.5625 -39.171875 0.5625 -29.910156 C 0.5625 -27.03125 2.191406 -25.089844 4.441406 -25.089844 C 6.695312 -25.089844 8.320312 -27.03125 8.320312 -29.910156 C 8.320312 -35.351562 13.890625 -38.796875 19.210938 -38.796875 C 23.902344 -38.796875 28.40625 -36.542969 28.40625 -31.722656 C 28.40625 -27.65625 25.65625 -23.964844 20.398438 -23.964844 L 19.335938 -23.964844 C 19.398438 -24.902344 19.398438 -25.90625 19.398438 -26.90625 C 19.398438 -31.472656 18.332031 -34.414062 14.515625 -34.414062 C 11.828125 -34.414062 10.199219 -32.664062 10.199219 -30.410156 C 10.199219 -29.535156 10.636719 -27.96875 10.636719 -26.90625 C 10.636719 -26.09375 10.636719 -25.277344 10.574219 -24.464844 C 8.574219 -24.214844 7.445312 -22.464844 7.445312 -20.773438 C 7.445312 -19.398438 8.195312 -17.957031 9.699219 -17.332031 C 9.386719 -15.332031 9.011719 -13.515625 8.699219 -11.761719 C 8.195312 -8.886719 7.757812 -5.507812 7.757812 -2.816406 C 7.757812 -0.3125 9.949219 1 12.140625 1 C 14.328125 1 16.519531 -0.3125 16.519531 -2.941406 C 16.519531 -5.132812 17.019531 -8.636719 17.582031 -11.953125 C 17.832031 -13.453125 18.144531 -15.015625 18.394531 -16.644531 L 19.523438 -16.644531 C 20.898438 -16.394531 21.398438 -14.140625 23.214844 -9.886719 C 25.96875 -3.441406 28.972656 1.0625 34.476562 1.0625 C 39.421875 1.0625 42.863281 -2.566406 47.117188 -14.765625 C 47.242188 -15.140625 47.304688 -15.582031 47.304688 -15.894531 C 47.304688 -17.707031 45.679688 -18.835938 44.050781 -18.835938 C 42.925781 -18.835938 41.734375 -18.269531 41.234375 -16.957031 Z M 41.234375 -16.957031 "/></g></g></g><g fill="#313bac" fill-opacity="1"><g transform="translate(190.409516, 162.021296)"><g><path d="M 48.367188 -16.957031 C 46.429688 -11.636719 44.363281 -7.382812 42.238281 -7.382812 C 40.734375 -7.382812 38.859375 -9.261719 38.859375 -15.015625 C 38.859375 -18.519531 38.859375 -24.777344 40.234375 -33.289062 C 40.484375 -34.851562 40.671875 -36.355469 40.671875 -37.167969 C 40.671875 -39.859375 38.542969 -41.359375 36.355469 -41.359375 C 34.414062 -41.359375 32.476562 -40.109375 32.101562 -37.417969 C 29.597656 -19.710938 24.089844 -7.195312 19.085938 -7.195312 C 17.769531 -7.195312 16.832031 -8.132812 16.832031 -10.511719 C 16.832031 -16.019531 20.835938 -33.101562 20.835938 -37.917969 C 20.835938 -42.988281 17.707031 -46.304688 12.015625 -46.304688 C 6.257812 -46.304688 2.128906 -42.175781 2.128906 -37.855469 C 2.128906 -35.667969 3.441406 -34.289062 5.507812 -34.289062 C 6.945312 -34.289062 7.820312 -34.976562 8.574219 -36.042969 C 10.011719 -38.042969 10.574219 -38.796875 11.199219 -38.796875 C 11.699219 -38.796875 12.140625 -38.355469 12.140625 -36.980469 C 12.140625 -34.101562 8.070312 -15.644531 8.070312 -10.011719 C 8.070312 -3.566406 11.828125 0.5625 18.019531 0.5625 C 23.527344 0.5625 27.84375 -3.253906 31.160156 -10.199219 C 32.164062 -2.878906 36.105469 0.4375 41.109375 0.4375 C 45.742188 0.4375 49.996094 -2.566406 54.25 -14.765625 C 54.375 -15.140625 54.4375 -15.582031 54.4375 -15.894531 C 54.4375 -17.707031 52.8125 -18.898438 51.183594 -18.898438 C 49.996094 -18.898438 48.867188 -18.269531 48.367188 -16.957031 Z M 48.367188 -16.957031 "/></g></g></g><g fill="#313bac" fill-opacity="1"><g transform="translate(239.461601, 162.021296)"><g><path d="M 19.710938 -46.242188 C 6.945312 -46.242188 -0.5 -38.796875 -0.5 -29.722656 C -0.5 -26.59375 1.691406 -25.027344 3.941406 -25.027344 C 6.132812 -25.027344 8.320312 -26.59375 8.320312 -29.722656 C 8.320312 -34.601562 12.140625 -38.417969 19.148438 -38.417969 C 26.40625 -38.417969 30.035156 -34.101562 30.035156 -28.660156 C 30.035156 -23.589844 26.90625 -19.585938 21.148438 -19.585938 C 20.523438 -19.585938 19.898438 -19.648438 19.273438 -19.710938 C 19.398438 -21.460938 19.523438 -23.214844 19.523438 -25.089844 C 19.523438 -30.035156 18.144531 -34.226562 14.328125 -34.226562 C 11.761719 -34.226562 10.074219 -32.664062 10.074219 -30.410156 C 10.074219 -29.222656 10.761719 -27.15625 10.761719 -25.089844 C 10.761719 -16.457031 8.007812 -8.699219 8.007812 -2.691406 C 8.007812 -0.0625 10.136719 1.25 12.328125 1.25 C 14.515625 1.25 16.769531 -0.125 16.769531 -2.753906 C 16.769531 -5.132812 17.519531 -8.449219 18.207031 -12.390625 C 19.523438 -12.015625 21.023438 -11.761719 22.652344 -11.761719 C 33.039062 -11.761719 38.859375 -20.210938 38.859375 -28.785156 C 38.859375 -37.480469 32.789062 -46.242188 19.710938 -46.242188 Z M 19.710938 -46.242188 "/></g></g></g></svg>